:SAMPLES-PER-SECOND 30
:FULLY-SPECIFIED
:DEGREES
463
root  -3.47364 34.7616 -2.70052 8.87784 23.2436 -4.61442
LeftUpLeg  -12.5823 10.8892 -0.099595
LeftLeg  5.07711 5.21276 0.126215
LeftFoot  3.13501 -0.00894722 0.285394
LeftToes  -8.15462 6.91067e-007 1.07128e-007
Spine  4.69063 -0.731084 -1.47408
Spine1  9.33873 -1.29419 -3.061
RightShoulder  -0.0156834 2.50482 -2.86597
RightArm  27.058 -50.4982 61.0013
RightForeArm  30.8164 79.9 99.4669
RightHand  3.29422 -31.2803 -11.3567
LeftShoulder1  -0.0114054 -1.94897 -2.12609
LeftArm  37.5576 54.5531 -40.029
LeftForeArm  75.018 -75.2275 -137.978
LeftHand  2.59519 31.1074 8.93337
HEad  -22.249 -4.12573 5.16796
RightUpLeg  -20.0317 -7.13071 -1.70589
RightLeg  11.2262 16.3107 2.13592
RightFoot  14.5441 -0.490923 4.22305
RightToes  -34.1924 -0.17383 -0.280022
464
root  -3.53588 34.7688 -2.70521 8.68015 23.8616 -4.98142
LeftUpLeg  -12.7047 10.8285 0.323372
LeftLeg  5.16425 4.67894 0.120362
LeftFoot  3.20964 -0.00735005 0.262335
LeftToes  -8.29526 6.91067e-007 1.07128e-007
Spine  4.62763 -0.59548 -1.48482
Spine1  9.21471 -1.03221 -3.05858
RightShoulder  -0.0166291 2.97107 -2.13111
RightArm  28.255 -49.9459 59.8638
RightForeArm  29.4209 79.8351 101.802
RightHand  4.51965 -31.8845 -15.3579
LeftShoulder1  -0.0106712 -1.80724 -2.30429
LeftArm  37.9911 53.8662 -40.083
LeftForeArm  73.1341 -75.3159 -137.682
LeftHand  3.06057 31.1661 10.5714
HEad  -22.2734 -3.89834 5.22068
RightUpLeg  -19.5331 -8.2228 -1.3876
RightLeg  11.1501 16.4196 2.12793
RightFoot  14.4893 -0.490637 4.23552
RightToes  -34.6347 -0.177104 -0.282853
465
root  -3.60993 34.7818 -2.68927 8.57067 24.4831 -5.22555
LeftUpLeg  -12.7401 10.6895 0.661303
LeftLeg  5.00938 4.23024 0.0973721
LeftFoot  3.43368 -0.00681885 0.253932
LeftToes  -8.39851 6.91067e-007 1.07128e-007
Spine  4.48987 -0.468731 -1.50354
Spine1  8.94139 -0.785857 -3.08254
RightShoulder  -0.0174667 3.26763 -1.79697
RightArm  28.8199 -49.7367 59.6771
RightForeArm  29.3194 79.7809 103.313
RightHand  5.68411 -32.1341 -19.1862
LeftShoulder1  -0.00990365 -1.62669 -2.51536
LeftArm  38.7933 53.2677 -39.8764
LeftForeArm  73.4742 -74.7766 -139.599
LeftHand  4.03873 31.5668 13.8482
HEad  -22.5271 -3.8169 5.05353
RightUpLeg  -19.0844 -9.19552 -1.15342
RightLeg  11.0397 16.4586 2.10109
RightFoot  14.3963 -0.485231 4.21791
RightToes  -34.8587 -0.178734 -0.28426
466
root  -3.6889 34.795 -2.65753 8.49227 25.0555 -5.45672
LeftUpLeg  -12.752 10.3726 1.03426
LeftLeg  4.82554 3.99317 0.079105
LeftFoot  3.68391 -0.00731948 0.257814
LeftToes  -8.85226 6.91067e-007 1.07128e-007
Spine  4.3654 -0.317453 -1.52707
Spine1  8.69037 -0.48651 -3.12952
RightShoulder  -0.0181883 3.26505 -1.63773
RightArm  29.2385 -49.8323 59.4763
RightForeArm  27.3672 79.7895 103.263
RightHand  6.21867 -32.3017 -20.874
LeftShoulder1  -0.00911364 -1.4509 -2.57857
LeftArm  39.5269 52.5006 -39.8318
LeftForeArm  72.8348 -74.4801 -140.588
LeftHand  4.95038 31.731 16.9233
HEad  -22.9313 -3.83661 5.05175
RightUpLeg  -18.6239 -9.53893 -1.05839
RightLeg  10.8879 16.277 2.03535
RightFoot  14.2445 -0.468328 4.12412
RightToes  -35.1644 -0.181052 -0.286209
467
root  -3.79188 34.8028 -2.61526 8.20626 25.847 -5.81685
LeftUpLeg  -12.7483 10.1552 1.56687
LeftLeg  4.84636 3.43455 0.0692206
LeftFoot  3.80091 -0.00597679 0.229777
LeftToes  -9.21394 6.91067e-007 1.07128e-007
Spine  4.30869 -0.213148 -1.53501
Spine1  8.57535 -0.280001 -3.13548
RightShoulder  -0.0188535 3.18373 -1.34302
RightArm  29.5989 -49.8123 58.9133
RightForeArm  25.6215 79.8366 102.135
RightHand  6.25871 -32.6467 -20.775
LeftShoulder1  -0.00831197 -1.23942 -2.56377
LeftArm  40.9777 50.8628 -39.6099
LeftForeArm  71.7235 -74.5232 -140.467
LeftHand  5.46488 31.7259 18.6949
HEad  -23.3547 -4.07164 5.19722
RightUpLeg  -18.0231 -9.56561 -0.934896
RightLeg  10.9132 15.6988 1.97176
RightFoot  13.9763 -0.431383 3.8956
RightToes  -35.965 -0.187079 -0.291213
468
root  -3.91282 34.8052 -2.56988 7.83463 26.7054 -6.14095
LeftUpLeg  -12.686 9.90801 2.10017
LeftLeg  4.88003 2.85194 0.059067
LeftFoot  3.9501 -0.00465394 0.199252
LeftToes  -9.67956 6.91067e-007 1.07128e-007
Spine  4.27155 -0.148654 -1.55649
Spine1  8.50372 -0.153594 -3.16418
RightShoulder  -0.0194777 3.21678 -0.8443
RightArm  30.704 -49.1721 57.8825
RightForeArm  24.1095 79.8639 101.473
RightHand  6.50271 -32.737 -21.5189
LeftShoulder1  -0.00750947 -1.23955 -2.83818
LeftArm  43.1967 48.7622 -38.656
LeftForeArm  70.0327 -74.648 -140.086
LeftHand  5.90028 31.8362 20.1118
HEad  -23.6984 -4.38836 5.24316
RightUpLeg  -17.4441 -9.48421 -0.86047
RightLeg  11.3518 14.7072 1.96302
RightFoot  13.5398 -0.37401 3.52721
RightToes  -37.2451 -0.196858 -0.299037
469
root  -4.04239 34.8017 -2.51739 7.54244 27.5748 -6.3989
LeftUpLeg  -12.6851 9.68064 2.56525
LeftLeg  4.91972 2.25834 0.0482233
LeftFoot  4.06876 -0.00315526 0.163674
LeftToes  -10.1449 6.91067e-007 1.07128e-007
Spine  4.22932 -0.0931178 -1.58765
Spine1  8.42323 -0.0427208 -3.21992
RightShoulder  -0.0200813 3.63371 -0.196955
RightArm  32.8444 -48.2143 56.2184
RightForeArm  23.4977 79.8758 101.165
RightHand  6.74359 -32.9016 -22.1942
LeftShoulder1  -0.00671696 -1.17105 -3.60032
LeftArm  46.623 45.7185 -36.6035
LeftForeArm  68.5626 -74.5326 -140.488
LeftHand  6.46538 32.0488 21.8772
HEad  -23.8114 -4.79127 5.31872
RightUpLeg  -16.9911 -9.18062 -0.8924
RightLeg  12.1608 13.439 1.9884
RightFoot  12.9425 -0.306023 3.07485
RightToes  -39.0096 -0.21062 -0.309459
470
root  -4.17034 34.7874 -2.47104 7.26472 28.3014 -6.58399
LeftUpLeg  -12.6529 9.39952 2.9694
LeftLeg  4.9403 1.84177 0.0398864
LeftFoot  4.15072 -0.00238807 0.137621
LeftToes  -10.7102 6.91067e-007 1.07128e-007
Spine  4.23035 0.0383574 -1.62935
Spine1  8.42555 0.222554 -3.29511
RightShoulder  -0.0205799 4.12963 0.0316799
RightArm  35.406 -46.6686 54.7571
RightForeArm  20.1843 79.9755 97.7509
RightHand  6.49807 -33.1565 -21.2182
LeftShoulder1  -0.00594528 -1.33399 -3.82724
LeftArm  49.1453 42.4108 -35.9719
LeftForeArm  65.6745 -74.9183 -139.245
LeftHand  7.03603 32.2748 23.6168
HEad  -23.7778 -5.29389 5.5604
RightUpLeg  -16.5734 -8.62054 -1.10489
RightLeg  13.2535 12.539 2.10018
RightFoot  12.0305 -0.241511 2.66904
RightToes  -39.1628 -0.215766 -0.313367
471
root  -4.29539 34.7684 -2.40512 7.16679 28.8424 -6.56167
LeftUpLeg  -12.5758 9.23082 3.19517
LeftLeg  4.82217 1.4688 0.0286805
LeftFoot  4.22422 -0.00181403 0.113202
LeftToes  -11.0391 6.91067e-007 1.07128e-007
Spine  4.14447 0.185304 -1.72093
Spine1  8.25347 0.517027 -3.46545
RightShoulder  -0.0209716 4.69734 -0.402192
RightArm  37.4183 -44.9249 54.3161
RightForeArm  16.4474 80.0242 95.6725
RightHand  6.91167 -33.9454 -22.0104
LeftShoulder1  -0.00520526 -1.77687 -3.45558
LeftArm  50.1155 40.5412 -36.4587
LeftForeArm  62.8109 -75.1063 -138.632
LeftHand  8.13637 32.5274 27.0273
HEad  -23.4754 -5.734 5.84233
RightUpLeg  -16.2207 -8.08447 -1.49313
RightLeg  14.3939 12.3518 2.32048
RightFoot  10.9547 -0.194237 2.4028
RightToes  -38.4658 -0.218458 -0.315425
472
root  -4.40073 34.7828 -2.29019 7.61338 29.318 -6.35054
LeftUpLeg  -12.7102 8.77131 3.24803
LeftLeg  4.38268 1.51043 0.0179719
LeftFoot  4.6705 -0.00382869 0.128123
LeftToes  -11.4904 6.91067e-007 1.07128e-007
Spine  3.9064 0.353375 -1.86197
Spine1  7.77495 0.851578 -3.74574
RightShoulder  -0.0210834 4.88875 -0.855548
RightArm  39.8404 -43.8896 53.5571
RightForeArm  21.5498 79.8098 103.254
RightHand  8.01039 -34.398 -25.1182
LeftShoulder1  -0.00450772 -1.51195 -3.25382
LeftArm  51.7356 39.2515 -35.7212
LeftForeArm  64.0006 -74.123 -141.84
LeftHand  8.98871 32.5794 29.7347
HEad  -23.3793 -6.19679 6.19012
RightUpLeg  -16.0453 -7.57665 -1.96025
RightLeg  14.9623 12.3672 2.44933
RightFoot  10.1058 -0.163354 2.22472
RightToes  -37.9869 -0.21908 -0.315919
473
root  -4.49764 34.8136 -2.14948 8.14433 29.6752 -6.13521
LeftUpLeg  -12.882 8.27096 3.32627
LeftLeg  4.01184 1.68235 0.00922873
LeftFoot  5.11245 -0.00667878 0.155614
LeftToes  -11.915 6.91067e-007 1.07128e-007
Spine  3.60473 0.625915 -1.9487
Spine1  7.16176 1.39266 -3.939
RightShoulder  -0.020985 5.03975 -1.3369
RightArm  41.8093 -44.2439 52.3218
RightForeArm  29.7653 79.3002 112.13
RightHand  8.04218 -34.5175 -25.1252
LeftShoulder1  -0.00386349 -1.08065 -3.4503
LeftArm  53.0217 38.6864 -34.2717
LeftForeArm  66.4824 -73.0819 -144.693
LeftHand  9.15721 32.76 30.105
HEad  -23.4729 -6.75169 6.41821
RightUpLeg  -15.8156 -7.53187 -2.29692
RightLeg  14.9643 12.8029 2.53464
RightFoot  9.63873 -0.153838 2.20184
RightToes  -37.9654 -0.218014 -0.315135
474
root  -4.61069 34.8252 -2.01972 8.41112 29.9446 -5.92832
LeftUpLeg  -12.9562 7.96188 3.43474
LeftLeg  3.93148 1.77958 0.00730212
LeftFoot  5.37357 -0.00889655 0.17334
LeftToes  -12.3925 6.91067e-007 1.07128e-007
Spine  3.33423 0.979942 -2.03736
Spine1  6.60625 2.09988 -4.10029
RightShoulder  -0.019977 4.87264 -1.63904
RightArm  42.9448 -44.7419 51.0898
RightForeArm  36.2558 78.6925 118.872
RightHand  7.82182 -34.8839 -24.1778
LeftShoulder1  -0.00258728 -0.53598 -3.9115
LeftArm  53.7362 37.9677 -32.7555
LeftForeArm  68.7723 -72.3887 -146.352
LeftHand  9.00623 33.1934 29.2278
HEad  -23.1829 -7.34736 6.50018
RightUpLeg  -15.3346 -7.56822 -2.57693
RightLeg  14.5609 13.6403 2.59889
RightFoot  9.16567 -0.149015 2.23627
RightToes  -37.68 -0.215643 -0.313358
475
root  -4.7502 34.8068 -1.8959 8.44398 30.2999 -5.6636
LeftUpLeg  -12.9196 7.73066 3.54974
LeftLeg  4.09333 1.67631 0.0115685
LeftFoot  5.38549 -0.00939823 0.164935
LeftToes  -13.1119 6.91067e-007 1.07128e-007
Spine  3.09756 1.28273 -2.13255
Spine1  6.12103 2.70516 -4.24864
RightShoulder  -0.0193791 4.65767 -1.85538
RightArm  43.2653 -44.9254 50.3181
RightForeArm  40.6068 78.1481 123.421
RightHand  7.87493 -35.3375 -24.0123
LeftShoulder1  -0.00193114 0.0203915 -4.42153
LeftArm  53.9241 37.264 -31.7632
LeftForeArm  69.835 -71.9577 -147.309
LeftHand  9.06938 33.3067 29.3245
HEad  -22.6353 -7.85885 6.50983
RightUpLeg  -14.5406 -7.42801 -2.84966
RightLeg  13.6533 14.5755 2.53785
RightFoot  8.68567 -0.143511 2.26694
RightToes  -37.8972 -0.212351 -0.310875
476
root  -4.91576 34.7644 -1.74653 8.41746 30.969 -5.22975
LeftUpLeg  -12.8892 7.5564 3.58809
LeftLeg  4.49688 1.12579 0.0154984
LeftFoot  5.26156 -0.00691922 0.111224
LeftToes  -13.9906 6.91067e-007 1.07128e-007
Spine  2.94236 1.3945 -2.25502
Spine1  5.80514 2.92954 -4.47908
RightShoulder  -0.0188631 4.58298 -2.0048
RightArm  43.5318 -44.6034 50.1797
RightForeArm  42.0905 78 124.489
RightHand  7.95372 -35.6015 -24.0608
LeftShoulder1  -0.00131076 0.413758 -5.00087
LeftArm  54.2385 36.8151 -30.8069
LeftForeArm  70.874 -71.6606 -147.935
LeftHand  9.19221 33.3671 29.6551
HEad  -22.2866 -8.20068 6.6541
RightUpLeg  -13.5702 -7.58007 -3.05083
RightLeg  12.6819 14.7373 2.31196
RightFoot  7.94517 -0.119203 2.09372
RightToes  -38.3496 -0.20852 -0.307971
477
root  -5.10478 34.6957 -1.59641 8.23693 31.6523 -4.54757
LeftUpLeg  -12.7819 7.48178 3.46328
LeftLeg  5.28795 0.489084 0.0131053
LeftFoot  4.87956 -0.00385184 0.0498614
LeftToes  -14.6849 6.91067e-007 1.07128e-007
Spine  2.94738 1.46225 -2.39906
Spine1  5.80862 3.07344 -4.76571
RightShoulder  -0.0183913 4.52149 -2.07256
RightArm  43.9157 -43.8762 50.6511
RightForeArm  38.8241 78.4433 121.066
RightHand  7.78756 -35.8131 -23.4171
LeftShoulder1  -0.000725457 0.694474 -5.76315
LeftArm  54.6789 36.1074 -29.8674
LeftForeArm  71.0921 -71.6267 -148.003
LeftHand  9.19842 33.1107 29.9095
HEad  -22.0584 -8.56605 6.75321
RightUpLeg  -12.5401 -8.02514 -3.30723
RightLeg  12.1733 14.5067 2.1464
RightFoot  6.75375 -0.0810078 1.75017
RightToes  -38.2343 -0.204534 -0.304932
